<svg xmlns="http://www.w3.org/2000/svg" version="1.1" xmlns:xlink="http://www.w3.org/1999/xlink" xmlns:svgjs="http://svgjs.dev/svgjs" width="1500" height="1500" viewBox="0 0 1500 1500"><rect width="1500" height="1500" fill="#ffffff"></rect><g transform="matrix(0.6666666666666666,0,0,0.6666666666666666,249.39393939393938,438.58569500674776)"><svg viewBox="0 0 396 247" data-background-color="#ffffff" preserveAspectRatio="xMidYMid meet" height="935" width="1500" xmlns="http://www.w3.org/2000/svg" xmlns:xlink="http://www.w3.org/1999/xlink"><g id="tight-bounds" transform="matrix(1,0,0,1,0.2400000000000091,-0.09999999999999432)"><svg viewBox="0 0 395.52 247.2" height="247.2" width="395.52"><g><svg></svg></g><g><svg viewBox="0 0 395.52 247.2" height="247.2" width="395.52"><mask id="8c4be354-12db-4d24-9b04-42f5511cc25e"><rect width="395.52" height="247.2" fill="white"></rect><g transform="matrix(1,0,0,1,0,78.93304017589446)" id="clone"><svg viewBox="0 0 395.52 89.33391964821108" height="89.33391964821108" width="395.52"><g><svg viewBox="0 0 395.52 89.33391964821108" height="89.33391964821108" width="395.52"><g><svg viewBox="0 0 395.52 89.33391964821108" height="89.33391964821108" width="395.52"><g><svg viewBox="0 0 395.52 89.33391964821108" height="89.33391964821108" width="395.52"><g id="SvgjsG1326"><svg viewBox="0 0 395.52 89.33391964821108" height="89.33391964821108" width="395.52" id="SvgjsSvg1325"><g><svg viewBox="0 0 395.52 89.33391964821108" height="89.33391964821108" width="395.52"><g transform="matrix(1,0,0,1,0,0)"><svg width="395.52" viewBox="-1.1 -41.3 251.13 57.5" height="89.33391964821108" data-palette-color="#6b7280"><path d="M27.45-32.2L27.45-33.4 37.55-33.4 37.55-32.2 34.05-31.05 34.05 0 31.3 0 8.4-27.45 8.4-2.45 12.55-1.2 12.55 0 2.25 0 2.25-1.2 6.25-2.45 6.25-31.75 1.9-32.25 1.9-33.4 10.1-33.4 31.3-7.75 31.3-31.05 27.45-32.2ZM52.8 0.55Q47.65 0.55 44.5-2.95 41.35-6.45 41.35-12.2 41.35-17.95 44.67-21.45 48-24.95 53.05-24.95 58.1-24.95 60.6-22.68 63.1-20.4 63.1-16.35L63.1-16.35Q63.1-15.15 62.9-13.95L62.9-13.95 46.75-13.95 46.75-12.2Q46.75-6.6 48.35-3.73 49.95-0.85 53.6-0.85L53.6-0.85Q58.75-0.85 61.55-5.35L61.55-5.35Q62.65-5 62.65-4.3L62.65-4.3Q62.65-3.05 60.35-1.4L60.35-1.4Q59.25-0.6 57.25-0.03 55.25 0.55 52.8 0.55L52.8 0.55ZM58.35-17.4L58.35-17.4Q58.35-19.7 57.4-21.35L57.4-21.35Q56.1-23.55 53.2-23.55L53.2-23.55Q47.8-23.55 46.9-15.75L46.9-15.75 58.25-15.75Q58.35-16.6 58.35-17.4ZM65.2-23.2L65.2-24.4 75.5-24.4 75.5-23.25 72.2-22.85 79.3-5.35 83.7-17 81.25-22.85 79.2-23.1 79.2-24.4 89.3-24.4 89.3-23.25 85.95-22.85 93.1-5.35 99.3-22.15 96.05-23.1 96.05-24.4 104.45-24.4 104.45-23.1 101.4-22.15 92.9 0 90.9 0 84.8-14.45 79.1 0 77.1 0 67.45-22.85 65.2-23.2ZM115.44-0.7L115.44-0.7Q117.44-0.7 118.92-1.8 120.39-2.9 120.39-5.5L120.39-5.5Q120.39-7.25 118.82-8.4 117.24-9.55 114.89-10.48 112.54-11.4 111.72-11.78 110.89-12.15 109.54-13L109.54-13Q107.09-14.65 107.09-17.75 107.09-20.85 109.54-22.9 111.99-24.95 116.69-24.95L116.69-24.95Q119.69-24.95 121.82-23.63 123.94-22.3 123.94-20.45 123.94-18.6 122.54-17.9L122.54-17.9Q121.79-17.55 121.07-17.55 120.34-17.55 119.64-17.85L119.64-17.85Q119.84-18.75 119.84-19.8 119.84-20.85 119.34-21.9L119.34-21.9Q118.49-23.7 116.09-23.7 113.69-23.7 112.44-22.4 111.19-21.1 111.19-19L111.19-19Q111.19-16.85 112.99-15.8L112.99-15.8Q114.34-14.95 116.34-14.25 118.34-13.55 119.07-13.28 119.79-13 120.99-12.35 122.19-11.7 122.79-11L122.79-11Q124.34-9.3 124.34-6.4 124.34-3.5 121.74-1.48 119.14 0.55 115.39 0.55 111.64 0.55 108.82-0.6 105.99-1.75 105.99-3.95L105.99-3.95Q105.99-6 109.04-6.65L109.04-6.65Q109.94-0.7 115.44-0.7ZM151.34-30.65Q149.14-31.5 148.14-31.6 147.14-31.7 145.72-31.78 144.29-31.85 142.37-31.85 140.44-31.85 137.79-31.6L137.79-31.6 137.79-1.75 143.29-1.6Q148.44-1.8 150.89-2.9L150.89-2.9Q157.54-5.95 157.59-16.7L157.59-16.7Q157.59-20.9 156.64-23.9 155.69-26.9 154.62-28.35 153.54-29.8 151.34-30.65ZM134.34-33.35L134.34-33.35 144.04-33.6Q148.49-33.6 151.84-32.85 155.19-32.1 157.99-30.3L157.99-30.3Q163.69-26.65 163.69-16.75L163.69-16.75Q163.69 0 143.29 0L143.29 0 128.19 0 128.19-1.3 132.54-1.7 132.54-31.65 128.19-32.2 128.19-33.5Q131.24-33.35 134.34-33.35ZM173.24-5.4L173.24-5.4Q173.24-2.15 175.89-1.55L175.89-1.55Q176.49-1.4 177.04-1.4L177.04-1.4Q178.94-1.4 180.99-3.03 183.04-4.65 183.14-7.4L183.14-7.4 183.14-11.7Q173.24-11.6 173.24-5.4ZM175.24 0.6L175.24 0.6Q172.39 0.6 170.36-0.98 168.34-2.55 168.34-5.4L168.34-5.4Q168.39-9.25 172.21-11.15 176.04-13.05 183.14-13.05L183.14-13.05 183.14-17.35Q183.14-23.7 178.54-23.7L178.54-23.7Q176.19-23.7 174.74-21.75L174.74-21.75Q173.74-20.4 173.74-18.4L173.74-18.4Q173.74-17.55 173.94-16.6L173.94-16.6Q173.24-16.1 172.51-16.1 171.79-16.1 171.09-16.4L171.09-16.4Q169.49-17 169.49-18.7L169.49-18.7Q169.49-21 171.14-22.5L171.14-22.5Q173.84-24.95 178.59-24.95 183.34-24.95 185.49-22.93 187.64-20.9 187.64-16.55L187.64-16.55 187.64-1.4 191.84-1.2 191.89-0.05 183.54 0.55 183.09-3.9Q180.79 0.6 175.24 0.6ZM202.49-32.58Q202.49-31.35 201.64-30.48 200.79-29.6 199.51-29.6 198.24-29.6 197.39-30.45 196.54-31.3 196.54-32.58 196.54-33.85 197.39-34.73 198.24-35.6 199.49-35.6 200.74-35.6 201.61-34.7 202.49-33.8 202.49-32.58ZM205.49 0L193.99 0 193.99-1.2 197.29-1.45 197.29-22.7 192.89-22.85 192.89-24 202.19-24.65 202.19-1.45 205.49-1.2 205.49 0ZM219.53-1.2L219.53 0 208.03 0 208.03-1.2 211.33-1.45 211.33-35.9 206.88-36.1 206.88-37.25 216.23-38.3 216.23-1.45 219.53-1.2ZM229.91 10.2Q228.88 11.35 227.33 12.28 225.78 13.2 224.2 13.2 222.63 13.2 221.75 12.38 220.88 11.55 220.88 10.18 220.88 8.8 222.13 7.4L222.13 7.4Q223.53 9 225.28 9L225.28 9Q227.78 9 229.58 6.83 231.38 4.65 233.08 0L233.08 0 223.48-22.8 220.93-23.1 220.93-24.4 231.58-24.4 231.58-23.1 228.13-22.8 235.28-5.35 241.43-22.15 237.43-23.1 237.43-24.4 247.03-24.4 247.03-23.1 243.53-22.15 235.08 0Q234.18 2.3 233.68 3.55 233.18 4.8 232.06 6.93 230.93 9.05 229.91 10.2Z" opacity="1" transform="matrix(1,0,0,1,0,0)" fill="black" class="wordmark-text-0" id="SvgjsPath1324" stroke-width="5" stroke="black" stroke-linejoin="round"></path></svg></g></svg></g></svg></g></svg></g><g></g></svg></g></svg></g></svg></g></mask><g mask="url(#8c4be354-12db-4d24-9b04-42f5511cc25e)"><g><path d="M254.934 8.881v-8.881h74.752v8.881l-25.904 8.512v229.807h-20.353l-169.488-203.163v185.03l30.715 9.252v8.881h-76.232v-8.881l29.605-9.252v-216.855l-32.195-3.701v-8.511h60.689l156.906 189.841v-172.448z" fill="#000000" fill-rule="nonzero" stroke="none" stroke-width="1" stroke-linecap="butt" stroke-linejoin="miter" stroke-miterlimit="10" stroke-dasharray="" stroke-dashoffset="0" font-family="none" font-weight="none" font-size="none" text-anchor="none" style="mix-blend-mode: normal" data-fill-palette-color="tertiary"></path></g></g><g transform="matrix(1,0,0,1,0,78.93304017589446)"><svg viewBox="0 0 395.52 89.33391964821108" height="89.33391964821108" width="395.52"><g><svg viewBox="0 0 395.52 89.33391964821108" height="89.33391964821108" width="395.52"><g><svg viewBox="0 0 395.52 89.33391964821108" height="89.33391964821108" width="395.52"><g><svg viewBox="0 0 395.52 89.33391964821108" height="89.33391964821108" width="395.52"><g id="textblocktransform"><svg viewBox="0 0 395.52 89.33391964821108" height="89.33391964821108" width="395.52" id="textblock"><g><svg viewBox="0 0 395.52 89.33391964821108" height="89.33391964821108" width="395.52"><g transform="matrix(1,0,0,1,0,0)"><svg width="395.52" viewBox="-1.1 -41.3 251.13 57.5" height="89.33391964821108" data-palette-color="#6b7280"><path d="M27.45-32.2L27.45-33.4 37.55-33.4 37.55-32.2 34.05-31.05 34.05 0 31.3 0 8.4-27.45 8.4-2.45 12.55-1.2 12.55 0 2.25 0 2.25-1.2 6.25-2.45 6.25-31.75 1.9-32.25 1.9-33.4 10.1-33.4 31.3-7.75 31.3-31.05 27.45-32.2ZM52.8 0.55Q47.65 0.55 44.5-2.95 41.35-6.45 41.35-12.2 41.35-17.95 44.67-21.45 48-24.95 53.05-24.95 58.1-24.95 60.6-22.68 63.1-20.4 63.1-16.35L63.1-16.35Q63.1-15.15 62.9-13.95L62.9-13.95 46.75-13.95 46.75-12.2Q46.75-6.6 48.35-3.73 49.95-0.85 53.6-0.85L53.6-0.85Q58.75-0.85 61.55-5.35L61.55-5.35Q62.65-5 62.65-4.3L62.65-4.3Q62.65-3.05 60.35-1.4L60.35-1.4Q59.25-0.6 57.25-0.03 55.25 0.55 52.8 0.55L52.8 0.55ZM58.35-17.4L58.35-17.4Q58.35-19.7 57.4-21.35L57.4-21.35Q56.1-23.55 53.2-23.55L53.2-23.55Q47.8-23.55 46.9-15.75L46.9-15.75 58.25-15.75Q58.35-16.6 58.35-17.4ZM65.2-23.2L65.2-24.4 75.5-24.4 75.5-23.25 72.2-22.85 79.3-5.35 83.7-17 81.25-22.85 79.2-23.1 79.2-24.4 89.3-24.4 89.3-23.25 85.95-22.85 93.1-5.35 99.3-22.15 96.05-23.1 96.05-24.4 104.45-24.4 104.45-23.1 101.4-22.15 92.9 0 90.9 0 84.8-14.45 79.1 0 77.1 0 67.45-22.85 65.2-23.2ZM115.44-0.7L115.44-0.7Q117.44-0.7 118.92-1.8 120.39-2.9 120.39-5.5L120.39-5.5Q120.39-7.25 118.82-8.4 117.24-9.55 114.89-10.48 112.54-11.4 111.72-11.78 110.89-12.15 109.54-13L109.54-13Q107.09-14.65 107.09-17.75 107.09-20.85 109.54-22.9 111.99-24.95 116.69-24.95L116.69-24.95Q119.69-24.95 121.82-23.63 123.94-22.3 123.94-20.45 123.94-18.6 122.54-17.9L122.54-17.9Q121.79-17.55 121.07-17.55 120.34-17.55 119.64-17.85L119.64-17.85Q119.84-18.75 119.84-19.8 119.84-20.85 119.34-21.9L119.34-21.9Q118.49-23.7 116.09-23.7 113.69-23.7 112.44-22.4 111.19-21.1 111.19-19L111.19-19Q111.19-16.85 112.99-15.8L112.99-15.8Q114.34-14.95 116.34-14.25 118.34-13.55 119.07-13.28 119.79-13 120.99-12.35 122.19-11.7 122.79-11L122.79-11Q124.34-9.3 124.34-6.4 124.34-3.5 121.74-1.48 119.14 0.55 115.39 0.55 111.64 0.55 108.82-0.6 105.99-1.75 105.99-3.95L105.99-3.95Q105.99-6 109.04-6.65L109.04-6.65Q109.94-0.7 115.44-0.7ZM151.34-30.65Q149.14-31.5 148.14-31.6 147.14-31.7 145.72-31.78 144.29-31.85 142.37-31.85 140.44-31.85 137.79-31.6L137.79-31.6 137.79-1.75 143.29-1.6Q148.44-1.8 150.89-2.9L150.89-2.9Q157.54-5.95 157.59-16.7L157.59-16.7Q157.59-20.9 156.64-23.9 155.69-26.9 154.62-28.35 153.54-29.8 151.34-30.65ZM134.34-33.35L134.34-33.35 144.04-33.6Q148.49-33.6 151.84-32.85 155.19-32.1 157.99-30.3L157.99-30.3Q163.69-26.65 163.69-16.75L163.69-16.75Q163.69 0 143.29 0L143.29 0 128.19 0 128.19-1.3 132.54-1.7 132.54-31.65 128.19-32.2 128.19-33.5Q131.24-33.35 134.34-33.35ZM173.24-5.4L173.24-5.4Q173.24-2.15 175.89-1.55L175.89-1.55Q176.49-1.4 177.04-1.4L177.04-1.4Q178.94-1.4 180.99-3.03 183.04-4.65 183.14-7.4L183.14-7.4 183.14-11.7Q173.24-11.6 173.24-5.4ZM175.24 0.6L175.24 0.6Q172.39 0.6 170.36-0.98 168.34-2.55 168.34-5.4L168.34-5.4Q168.39-9.25 172.21-11.15 176.04-13.05 183.14-13.05L183.14-13.05 183.14-17.35Q183.14-23.7 178.54-23.7L178.54-23.7Q176.19-23.7 174.74-21.75L174.74-21.75Q173.74-20.4 173.74-18.4L173.74-18.4Q173.74-17.55 173.94-16.6L173.94-16.6Q173.24-16.1 172.51-16.1 171.79-16.1 171.09-16.4L171.09-16.4Q169.49-17 169.49-18.7L169.49-18.7Q169.49-21 171.14-22.5L171.14-22.5Q173.84-24.95 178.59-24.95 183.34-24.95 185.49-22.93 187.64-20.9 187.64-16.55L187.64-16.55 187.64-1.4 191.84-1.2 191.89-0.05 183.54 0.55 183.09-3.9Q180.79 0.6 175.24 0.6ZM202.49-32.58Q202.49-31.35 201.64-30.48 200.79-29.6 199.51-29.6 198.24-29.6 197.39-30.45 196.54-31.3 196.54-32.58 196.54-33.85 197.39-34.73 198.24-35.6 199.49-35.6 200.74-35.6 201.61-34.7 202.49-33.8 202.49-32.58ZM205.49 0L193.99 0 193.99-1.2 197.29-1.45 197.29-22.7 192.89-22.85 192.89-24 202.19-24.65 202.19-1.45 205.49-1.2 205.49 0ZM219.53-1.2L219.53 0 208.03 0 208.03-1.2 211.33-1.45 211.33-35.9 206.88-36.1 206.88-37.25 216.23-38.3 216.23-1.45 219.53-1.2ZM229.91 10.2Q228.88 11.35 227.33 12.28 225.78 13.2 224.2 13.2 222.63 13.2 221.75 12.38 220.88 11.55 220.88 10.18 220.88 8.8 222.13 7.4L222.13 7.4Q223.53 9 225.28 9L225.28 9Q227.78 9 229.58 6.83 231.38 4.65 233.08 0L233.08 0 223.48-22.8 220.93-23.1 220.93-24.4 231.58-24.4 231.58-23.1 228.13-22.8 235.28-5.35 241.43-22.15 237.43-23.1 237.43-24.4 247.03-24.4 247.03-23.1 243.53-22.15 235.08 0Q234.18 2.3 233.68 3.55 233.18 4.8 232.06 6.93 230.93 9.05 229.91 10.2Z" opacity="1" transform="matrix(1,0,0,1,0,0)" fill="#000000" class="wordmark-text-0" data-fill-palette-color="primary" id="text-0"></path></svg></g></svg></g></svg></g></svg></g><g></g></svg></g></svg></g></svg></g></svg></g><defs></defs></svg><rect width="395.52" height="247.2" fill="none" stroke="none" visibility="hidden"></rect></g></svg></g></svg>